PathFileType	4	(X/Y/Z)	C:\Users\Basilio\Documents\Thesis Gigler\squatting_fais\c3dfiles\041\SLS_pre_front4\markers_experimental.trc
DataRate	CameraRate	NumFrames	NumMarkers	Units	OrigDataRate	OrigDataStartFrame	OrigNumFrames
200.000000	200.000000	4	63	mm	200.000000	517	1381
Frame#	Time	FHD			LBHD			RBHD			C7			T10			CLAV			LSHO			LUUPA			LMUPA			LDUPA			LLEP			LMEP			LRAD			LUL			LRFIN			RSHO			RUPA1			RMUPA			RDUPA			RLEP			RMEP			RRAD			RUL			RUFIN			LASI			RASI			USACR			RSACR			LTHI1			LTHI2			LTHI3			LTHI4			LLFC			LMFC			LTIB1			LTIB2			LTIB3			LTIB4			LLMAL			LMMAL			LHEE			LMT1			LMT2			LMT5			RTHI			RTHI2			RTHI3			RTHI4			RLFC			RMFC			RTIB1			RTIB2			RTIB3			RTIB4			RLMAL			RMMAL			RHEE			RMT1			RMT2			RMT5			LSACR			*61			*62			
		X1	Y1	Z1	X2	Y2	Z2	X3	Y3	Z3	X4	Y4	Z4	X5	Y5	Z5	X6	Y6	Z6	X7	Y7	Z7	X8	Y8	Z8	X9	Y9	Z9	X10	Y10	Z10	X11	Y11	Z11	X12	Y12	Z12	X13	Y13	Z13	X14	Y14	Z14	X15	Y15	Z15	X16	Y16	Z16	X17	Y17	Z17	X18	Y18	Z18	X19	Y19	Z19	X20	Y20	Z20	X21	Y21	Z21	X22	Y22	Z22	X23	Y23	Z23	X24	Y24	Z24	X25	Y25	Z25	X26	Y26	Z26	X27	Y27	Z27	X28	Y28	Z28	X29	Y29	Z29	X30	Y30	Z30	X31	Y31	Z31	X32	Y32	Z32	X33	Y33	Z33	X34	Y34	Z34	X35	Y35	Z35	X36	Y36	Z36	X37	Y37	Z37	X38	Y38	Z38	X39	Y39	Z39	X40	Y40	Z40	X41	Y41	Z41	X42	Y42	Z42	X43	Y43	Z43	X44	Y44	Z44	X45	Y45	Z45	X46	Y46	Z46	X47	Y47	Z47	X48	Y48	Z48	X49	Y49	Z49	X50	Y50	Z50	X51	Y51	Z51	X52	Y52	Z52	X53	Y53	Z53	X54	Y54	Z54	X55	Y55	Z55	X56	Y56	Z56	X57	Y57	Z57	X58	Y58	Z58	X59	Y59	Z59	X60	Y60	Z60	X61	Y61	Z61	X62	Y62	Z62	X63	Y63	Z63	

518	2.585	-242.6319427490235	1674.524291992188	-1112.104736328125	-412.7770996093751	1585.328002929688	-1179.974243164063	-390.5159912109376	1597.709594726563	-1028.78759765625	-442.9735412597657	1461.6201171875	-1102.248779296875	-530.1459350585939	1165.773193359375	-1070.404296875	-289.0158996582032	1391.614013671875	-1108.67822265625	-373.2745361328126	1468.142822265625	-1237.808837890625	-281.1698608398438	1468.7490234375	-1371.211059570313	-237.926742553711	1483.338623046875	-1356.605346679688	-227.8824005126954	1473.71044921875	-1416.682250976563	-184.8001861572266	1473.3603515625	-1437.532348632813	-138.9287261962891	1405.344116210938	-1411.276000976563	84.8074417114258	1519.144409179688	-1500.147094726563	49.10092926025392	1521.812255859375	-1563.944580078125	140.2542877197266	1565.539794921875	-1527.12841796875	-351.4491577148438	1492.760009765625	-993.5964965820315	-206.5977020263672	1507.44140625	-880.4089965820315	-190.27294921875	1529.335083007813	-923.4456176757815	-141.528564453125	1532.981567382813	-889.6286621093752	-97.499626159668	1540.791259765625	-892.403503417969	-71.29067230224611	1460.624877929688	-908.506286621094	166.890380859375	1558.272338867188	-955.8262939453127	161.8798980712891	1584.980224609375	-886.414978027344	247.537582397461	1580.664794921875	-960.9429321289065	-383.3543090820313	963.1403808593752	-1169.813232421875	-390.3735351562501	969.6182861328127	-946.7098388671877	-563.0798950195314	1040.167724609375	-1063.599853515625	-583.3667602539064	1013.984252929688	-1036.770141601563	-414.2727966308595	752.7091674804689	-1230.869506835938	-344.2517089843751	704.7558593750001	-1225.267333984375	-304.9742431640626	730.3229980468751	-1216.440795898438	-341.1352539062501	644.4257202148439	-1209.6943359375	-245.8347930908204	503.716766357422	-1179.523315429688	-237.7302703857422	502.422576904297	-1063.669189453125	-251.2258453369141	322.5524291992188	-1097.919799804688	-309.9320373535157	284.7896728515626	-1154.675903320313	-274.1752624511719	275.1293640136719	-1128.019897460938	-295.1936950683594	207.2335052490235	-1083.53857421875	-378.7069091796876	127.5665664672852	-1112.24658203125	-340.1001586914063	139.6210479736328	-1030.641479492188	-447.8501586914064	116.0353012084961	-1064.083129882813	-241.8811950683594	64.41676330566408	-1040.5439453125	-235.1414031982422	58.17227172851564	-1085.8173828125	-284.7018127441407	42.96064758300782	-1138.49755859375	-351.0356140136719	734.4938354492189	-878.123229980469	-285.2839965820313	729.8162231445314	-878.0877685546877	-265.2432250976563	756.1768798828126	-883.056091308594	-242.7622070312501	658.5430908203126	-898.422546386719	-145.0446166992188	579.8700561523439	-905.5303344726565	-116.8792190551758	589.8233032226564	-1022.374633789063	-2.643203973770142	486.2280273437501	-916.6282348632815	-7.760180473327638	373.1039428710938	-910.237487792969	27.2909107208252	404.0474243164064	-908.1240234375002	77.77524566650392	388.0261230468751	-934.7930908203127	125.0220565795899	262.1846313476563	-928.7216796875002	133.8825073242188	304.6434326171876	-1005.637634277344	118.946403503418	196.0158233642579	-985.738220214844	264.5074462890626	356.6398315429688	-976.3772583007815	259.9497985839844	358.2724304199219	-924.084655761719	247.8963775634766	306.5140075683594	-882.7985839843752	-578.0928955078126	1013.389831542969	-1091.188110351563	-4216.909667968751	853.1898193359377	-3944.774414062501	nan	nan	nan	
519	2.59	-242.5971679687501	1673.792602539063	-1112.072265625	-412.4713745117189	1584.563598632813	-1180.211059570313	-390.3104553222657	1596.834106445313	-1028.969360351563	-442.6615295410157	1461.068969726563	-1102.5068359375	-530.3543701171876	1165.43017578125	-1070.383056640625	-287.8770141601563	1391.09765625	-1109.378662109375	-373.0148315429688	1467.471313476563	-1237.988647460938	-281.0120239257813	1468.01416015625	-1371.430541992188	-237.6333160400391	1482.558715820313	-1356.84716796875	-228.7103729248047	1473.4951171875	-1417.53173828125	-184.6966705322266	1472.49951171875	-1437.686279296875	-138.6145172119141	1404.644287109375	-1411.478881835938	84.44841766357423	1518.16650390625	-1500.707397460938	49.08665847778322	1520.978271484375	-1564.406860351563	140.2263336181641	1564.499267578125	-1527.62548828125	-351.1581115722657	1492.154907226563	-993.8568115234377	-206.338607788086	1506.858642578125	-880.6939697265627	-189.9371185302735	1528.568969726563	-923.9371337890627	-141.1572418212891	1532.376342773438	-890.0876464843752	-97.16754150390628	1540.267700195313	-892.9715576171877	-70.83708953857423	1459.894165039063	-909.1343994140627	167.2581787109375	1557.161987304688	-956.2326660156252	162.081039428711	1584.127563476563	-886.7213134765627	247.9124145507813	1579.599487304688	-961.335388183594	-383.7348327636719	962.7991333007815	-1169.830444335938	-390.7250061035157	969.174743652344	-946.5515136718752	-563.5679931640626	1039.716430664063	-1063.529541015625	-583.3936157226564	1013.682861328125	-1036.43017578125	-414.690155029297	752.4980468750001	-1230.89697265625	-344.5469665527344	704.5928344726564	-1225.402587890625	-305.3537597656251	730.2566528320314	-1216.561767578125	-341.3794250488282	644.2066650390626	-1209.853515625	-245.8667755126954	503.6449279785157	-1179.773193359375	-237.6624755859376	502.3318786621095	-1063.887573242188	-251.1883850097657	322.4915466308594	-1098.085083007813	-309.9810180664063	284.5987854003907	-1155.025756835938	-274.1413269042969	275.2282104492188	-1128.2607421875	-295.3033752441407	206.9729156494141	-1083.292114257813	-378.7709350585938	127.4911499023438	-1112.363159179688	-340.0987854003907	139.6563720703125	-1030.72119140625	-447.6654663085939	115.7820510864258	-1064.2353515625	-241.825424194336	64.53960418701173	-1040.644897460938	-235.2039642333985	58.24442291259767	-1085.715698242188	-284.6902770996094	42.94647979736329	-1138.4970703125	-351.3079528808594	734.1511230468751	-878.2912597656252	-285.9915161132813	729.4729003906251	-877.8606567382815	-265.6947326660157	755.8258666992189	-883.0625000000002	-243.1047058105469	658.2747802734376	-898.432556152344	-145.4841003417969	579.6651000976564	-905.6486816406252	-117.2467422485352	589.7128906250001	-1022.512390136719	-2.848108768463135	486.1592102050782	-916.9052734375002	-7.925182819366457	372.9722595214844	-910.5810546875002	27.14364242553712	403.9805603027345	-908.4597778320315	77.7562713623047	388.0517883300782	-935.1443481445315	124.9932327270508	262.1578063964844	-929.096130371094	133.823486328125	304.6142883300782	-1006.035766601563	118.9303665161133	196.0108337402344	-986.059753417969	264.4592590332032	356.7900085449219	-976.8630371093752	259.8877258300782	358.4881896972657	-924.5438232421877	247.8300781250001	306.6095886230469	-883.323181152344	-578.5315551757814	1012.942993164063	-1091.126342773438	-4216.703613281251	853.109558105469	-3944.812011718751	nan	nan	nan	
520	2.595	-242.5398406982422	1673.597778320313	-1112.363891601563	-412.111053466797	1583.96533203125	-1180.386474609375	-390.1829833984376	1596.2109375	-1029.151977539063	-442.5155334472657	1460.599365234375	-1102.86181640625	-530.5099487304689	1165.035034179688	-1070.413818359375	-287.6516723632813	1390.339721679688	-1109.5478515625	-372.8963928222657	1466.733276367188	-1238.23388671875	-280.8406066894532	1467.372192382813	-1371.649291992188	-237.3296508789063	1481.796875	-1357.04931640625	-228.1205596923829	1472.356567382813	-1417.169921875	-184.7433166503907	1471.933715820313	-1438.3466796875	-139.0466918945313	1403.995849609375	-1411.742553710938	85.05211639404298	1517.1630859375	-1501.146362304688	49.0580406188965	1520.033325195313	-1564.73681640625	140.352035522461	1563.607788085938	-1528.171264648438	-350.8435974121094	1491.570434570313	-994.1600341796877	-206.2945556640626	1506.244384765625	-881.152526855469	-189.7561492919922	1528.064819335938	-924.3480224609377	-140.7823944091797	1531.750732421875	-890.535095214844	-96.82232666015628	1539.517211914063	-893.4249267578127	-70.53563690185548	1459.254760742188	-909.421569824219	167.6883697509766	1556.317260742188	-956.627380371094	162.492660522461	1583.270629882813	-887.2954101562502	248.2806091308594	1578.52783203125	-961.8345336914065	-384.1864013671876	962.3796997070315	-1169.806762695313	-391.3161010742189	968.6867675781252	-946.3856201171877	-564.0063476562501	1039.321166992188	-1063.394897460938	-583.5476684570314	1013.288818359375	-1036.316162109375	-414.9995422363282	752.2123413085939	-1230.950805664063	-344.8370971679688	704.5006103515626	-1225.5380859375	-305.7142639160157	730.1597290039064	-1216.690795898438	-341.5532531738282	643.9297485351564	-1210.016845703125	-245.8485717773438	503.5415954589845	-1180.017333984375	-237.5100708007813	502.2141113281251	-1064.14013671875	-251.1380157470704	322.4033508300782	-1098.28173828125	-309.9547119140626	284.4912719726563	-1155.311889648438	-274.2144165039063	275.2382507324219	-1128.536499023438	-295.3472900390626	206.9445800781251	-1083.462036132813	-378.8086547851563	127.4511413574219	-1112.502197265625	-340.1011657714844	139.733154296875	-1030.9111328125	-447.6670837402345	115.7880554199219	-1064.239868164063	-241.8535156250001	64.5994338989258	-1040.650512695313	-235.2238464355469	58.18265533447267	-1085.797241210938	-284.6591796875001	42.86312103271485	-1138.552734375	-351.8829345703126	733.6427612304689	-878.3208618164065	-286.3262023925782	729.1583862304689	-877.957946777344	-266.1365356445313	755.3684082031251	-883.1907958984377	-243.4559173583985	657.7719726562501	-898.5796508789065	-145.7847595214844	579.4376220703126	-905.9058837890627	-117.5094833374024	589.6008300781251	-1022.678344726563	-3.079371452331544	485.9692993164064	-917.0996093750002	-8.031179428100588	372.9467468261719	-910.951843261719	27.04335594177247	403.8946228027345	-908.8040771484377	77.65232849121095	388.0086059570314	-935.4322509765627	124.9542007446289	262.2185363769532	-929.4039306640627	133.6551971435547	304.6457824707032	-1006.4033203125	118.8667755126953	196.1202545166016	-986.4351806640627	264.4753417968751	357.0307312011719	-977.3616943359377	259.8391113281251	358.6188964843751	-924.9724121093752	247.7558288574219	306.6682739257813	-883.1656494140627	-579.0617065429689	1012.5751953125	-1091.06689453125	-4216.717773437501	853.1609497070315	-3944.801269531251	nan	nan	nan	
521	2.6	-242.3342742919922	1672.72802734375	-1112.452026367188	-411.9195861816407	1583.349243164063	-1180.57275390625	-390.015350341797	1595.504638671875	-1029.392211914063	-442.2830505371095	1459.967651367188	-1103.063110351563	-530.7886962890626	1164.642700195313	-1070.41162109375	-287.6997070312501	1389.618408203125	-1109.82470703125	-372.6714172363282	1466.158813476563	-1238.365112304688	-280.6394348144532	1466.659545898438	-1371.925415039063	-237.1379394531251	1481.160766601563	-1357.314086914063	-227.4062500000001	1471.6630859375	-1417.442138671875	-184.3538208007813	1470.96875	-1438.131225585938	-138.9880523681641	1403.184204101563	-1411.862060546875	84.7499465942383	1516.225219726563	-1501.744140625	49.04764938354494	1519.026000976563	-1565.059204101563	140.4701385498047	1562.5400390625	-1528.6162109375	-350.5592346191407	1490.88671875	-994.4678344726565	-206.0579833984376	1505.511596679688	-881.5820922851565	-189.6657257080078	1527.371948242188	-924.7249145507815	-140.5424041748047	1531.1103515625	-890.9187011718752	-96.55369567871097	1538.842163085938	-893.6919555664065	-70.41490936279298	1458.409545898438	-909.6289062500002	168.0304412841797	1555.521850585938	-957.194274902344	162.9127349853516	1582.44873046875	-887.7811279296877	248.6611785888672	1577.536254882813	-962.3762207031252	-384.6479492187501	961.942321777344	-1169.685913085938	-391.8021240234376	968.2686157226565	-946.2996215820315	-564.4315185546876	1038.907592773438	-1063.317626953125	-584.2039794921876	1012.930114746094	-1036.354858398438	-415.3731079101564	751.9873046875001	-1231.045043945313	-345.1494445800782	704.3364257812501	-1225.602905273438	-306.0532531738282	730.0827636718751	-1216.813720703125	-341.7478332519532	643.7537841796876	-1210.268798828125	-245.8313903808594	503.4284057617189	-1180.253051757813	-237.4298858642579	502.1636352539064	-1064.44921875	-251.0417633056641	322.3057861328126	-1098.524291992188	-309.9432678222657	284.4118652343751	-1155.6025390625	-274.2584228515626	275.2395629882813	-1128.743041992188	-295.3802490234376	206.9521789550782	-1083.564819335938	-378.8305358886719	127.393783569336	-1112.627685546875	-340.1117248535157	139.7912139892578	-1031.113525390625	-447.636932373047	115.7299728393555	-1064.285278320313	-241.8563079833985	64.68114471435548	-1040.72705078125	-235.2495269775391	58.20309448242189	-1085.824951171875	-284.8005676269532	43.0818099975586	-1138.520751953125	-352.5939636230469	733.1518554687501	-878.1315917968752	-287.0867309570313	728.5566406250001	-877.372985839844	-266.6095581054688	754.9128417968751	-883.1942138671877	-243.7223663330079	657.3184204101564	-898.6387329101565	-146.059310913086	579.2579956054689	-906.102722167969	-117.7977752685547	589.3909912109376	-1022.910034179688	-2.959988355636597	485.8522033691407	-917.3955078125002	-8.0585994720459	372.7438659667969	-911.059997558594	26.90106391906739	403.7768859863282	-908.9951782226565	77.50402832031251	387.9310913085939	-935.753356933594	124.9587936401367	262.1539001464844	-929.764587402344	133.5787658691407	304.6733093261719	-1006.716064453125	118.8582916259766	196.0510253906251	-986.7221679687502	264.2493591308594	357.3615722656251	-977.7962036132815	259.7609558105469	358.7810974121094	-925.1945800781252	247.7309570312501	306.8391723632813	-883.7763671875002	-579.4404296875001	1012.245300292969	-1091.036254882813	-4216.969238281251	853.134216308594	-3944.739257812501	nan	nan	nan	
